REM DIRINDEX 1\2,1\3,1\4,1\5,1\6
REM DIRNAME folder01,folder02,folder03,folder04,folder05,folder06
TITLE ""
FILE "CD1-35.mp3" MP3
  TRACK 01 AUDIO
    TITLE "6:cjc091_0684"
    INDEX 01 00:00:00
  TRACK 02 AUDIO
    TITLE "0:"
    INDEX 01 00:02:06
  TRACK 03 AUDIO
    TITLE "2:cjc091_0685"
    INDEX 01 00:03:29
  TRACK 04 AUDIO
    TITLE "0:"
    INDEX 01 00:04:44
  TRACK 05 AUDIO
    TITLE "3:cjc091_0686"
    INDEX 01 00:04:62
  TRACK 06 AUDIO
    TITLE "0:"
    INDEX 01 00:05:73
  TRACK 07 AUDIO
    TITLE "4:cjc091_0687"
    INDEX 01 00:06:12
  TRACK 08 AUDIO
    TITLE "0:"
    INDEX 01 00:11:25
  TRACK 09 AUDIO
    TITLE "2:cjc091_0688"
    INDEX 01 00:12:36
  TRACK 10 AUDIO
    TITLE "0:"
    INDEX 01 00:13:61
  TRACK 11 AUDIO
    TITLE "3:cjc091_0689"
    INDEX 01 00:14:07
  TRACK 12 AUDIO
    TITLE "0:"
    INDEX 01 00:16:00
  TRACK 13 AUDIO
    TITLE "4:cjc091_0690"
    INDEX 01 00:16:22
  TRACK 14 AUDIO
    TITLE "0:"
    INDEX 01 00:20:30
  TRACK 15 AUDIO
    TITLE "2:cjc091_0691"
    INDEX 01 00:21:43
  TRACK 16 AUDIO
    TITLE "0:"
    INDEX 01 00:23:30
  TRACK 17 AUDIO
    TITLE "3:cjc091_0692"
    INDEX 01 00:23:50
  TRACK 18 AUDIO
    TITLE "0:"
    INDEX 01 00:25:33
  TRACK 19 AUDIO
    TITLE "4:cjc091_0693"
    INDEX 01 00:25:48
  TRACK 20 AUDIO
    TITLE "0:"
    INDEX 01 00:32:00
  TRACK 21 AUDIO
    TITLE "2:cjc091_0694"
    INDEX 01 00:33:07
  TRACK 22 AUDIO
    TITLE "0:"
    INDEX 01 00:34:36
  TRACK 23 AUDIO
    TITLE "3:cjc091_0695"
    INDEX 01 00:34:47
  TRACK 24 AUDIO
    TITLE "0:"
    INDEX 01 00:36:25
  TRACK 25 AUDIO
    TITLE "4:cjc091_0696"
    INDEX 01 00:36:42
  TRACK 26 AUDIO
    TITLE "0:"
    INDEX 01 00:40:15
  TRACK 27 AUDIO
    TITLE "2:cjc091_0697"
    INDEX 01 00:41:28
  TRACK 28 AUDIO
    TITLE "0:"
    INDEX 01 00:42:63
  TRACK 29 AUDIO
    TITLE "3:cjc091_0698"
    INDEX 01 00:43:03
  TRACK 30 AUDIO
    TITLE "0:"
    INDEX 01 00:45:28
  TRACK 31 AUDIO
    TITLE "4:cjc091_0699"
    INDEX 01 00:45:47
  TRACK 32 AUDIO
    TITLE "0:"
    INDEX 01 00:49:08
  TRACK 33 AUDIO
    TITLE "2:cjc091_0700"
    INDEX 01 00:50:25
  TRACK 34 AUDIO
    TITLE "0:"
    INDEX 01 00:51:36
  TRACK 35 AUDIO
    TITLE "3:cjc091_0701"
    INDEX 01 00:51:52
  TRACK 36 AUDIO
    TITLE "0:"
    INDEX 01 00:53:41
  TRACK 37 AUDIO
    TITLE "4:cjc091_0702"
    INDEX 01 00:53:70
  TRACK 38 AUDIO
    TITLE "0:"
    INDEX 01 01:00:04
  TRACK 39 AUDIO
    TITLE "2:cjc091_0703"
    INDEX 01 01:01:19
  TRACK 40 AUDIO
    TITLE "0:"
    INDEX 01 01:03:10
  TRACK 41 AUDIO
    TITLE "3:cjc091_0704"
    INDEX 01 01:03:27
  TRACK 42 AUDIO
    TITLE "0:"
    INDEX 01 01:05:54
  TRACK 43 AUDIO
    TITLE "4:cjc091_0705"
    INDEX 01 01:06:00
  TRACK 44 AUDIO
    TITLE "0:"
    INDEX 01 01:10:12
  TRACK 45 AUDIO
    TITLE "2:cjc091_0706"
    INDEX 01 01:11:23
  TRACK 46 AUDIO
    TITLE "0:"
    INDEX 01 01:12:44
  TRACK 47 AUDIO
    TITLE "3:cjc091_0707"
    INDEX 01 01:12:52
  TRACK 48 AUDIO
    TITLE "0:"
    INDEX 01 01:14:08
  TRACK 49 AUDIO
    TITLE "4:cjc091_0708"
    INDEX 01 01:14:29
  TRACK 50 AUDIO
    TITLE "0:"
    INDEX 01 01:19:44
  TRACK 51 AUDIO
    TITLE "2:cjc091_0709"
    INDEX 01 01:20:57
  TRACK 52 AUDIO
    TITLE "0:"
    INDEX 01 01:22:27
  TRACK 53 AUDIO
    TITLE "3:cjc091_0710"
    INDEX 01 01:22:44
  TRACK 54 AUDIO
    TITLE "0:"
    INDEX 01 01:24:51
  TRACK 55 AUDIO
    TITLE "4:cjc091_0711"
    INDEX 01 01:24:71
  TRACK 56 AUDIO
    TITLE "0:"
    INDEX 01 01:27:14
  TRACK 57 AUDIO
    TITLE "2:cjc091_0712"
    INDEX 01 01:28:25
  TRACK 58 AUDIO
    TITLE "0:"
    INDEX 01 01:29:48
  TRACK 59 AUDIO
    TITLE "3:cjc091_0713"
    INDEX 01 01:29:54
  TRACK 60 AUDIO
    TITLE "0:"
    INDEX 01 01:31:20
  TRACK 61 AUDIO
    TITLE "4:cjc091_0714"
    INDEX 01 01:31:45
  TRACK 62 AUDIO
    TITLE "0:"
    INDEX 01 01:34:26
  TRACK 63 AUDIO
    TITLE "2:cjc091_0715"
    INDEX 01 01:35:39
  TRACK 64 AUDIO
    TITLE "0:"
    INDEX 01 01:36:72
  TRACK 65 AUDIO
    TITLE "3:cjc091_0716"
    INDEX 01 01:37:09
  TRACK 66 AUDIO
    TITLE "0:"
    INDEX 01 01:38:67
  TRACK 67 AUDIO
    TITLE "4:cjc091_0717"
    INDEX 01 01:39:14
  TRACK 68 AUDIO
    TITLE "0:"
    INDEX 01 01:42:16
  TRACK 69 AUDIO
    TITLE "2:cjc091_0718"
    INDEX 01 01:43:33
  TRACK 70 AUDIO
    TITLE "0:"
    INDEX 01 01:44:64
  TRACK 71 AUDIO
    TITLE "3:cjc091_0719"
    INDEX 01 01:44:68
  TRACK 72 AUDIO
    TITLE "0:"
    INDEX 01 01:46:21
  TRACK 73 AUDIO
    TITLE "4:cjc091_0720"
    INDEX 01 01:46:43
  TRACK 74 AUDIO
    TITLE "0:"
    INDEX 01 01:51:42
  TRACK 75 AUDIO
    TITLE "2:cjc091_0721"
    INDEX 01 01:52:57
  TRACK 76 AUDIO
    TITLE "0:"
    INDEX 01 01:54:03
  TRACK 77 AUDIO
    TITLE "3:cjc091_0722"
    INDEX 01 01:54:07
  TRACK 78 AUDIO
    TITLE "0:"
    INDEX 01 01:55:63
  TRACK 79 AUDIO
    TITLE "4:cjc091_0723"
    INDEX 01 01:56:08
  TRACK 80 AUDIO
    TITLE "0:"
    INDEX 01 02:00:24
  TRACK 81 AUDIO
    TITLE "2:cjc091_0724"
    INDEX 01 02:01:27
  TRACK 82 AUDIO
    TITLE "0:"
    INDEX 01 02:02:66
  TRACK 83 AUDIO
    TITLE "3:cjc091_0725"
    INDEX 01 02:03:00
  TRACK 84 AUDIO
    TITLE "0:"
    INDEX 01 02:05:15
  TRACK 85 AUDIO
    TITLE "4:cjc091_0726"
    INDEX 01 02:05:36
  TRACK 86 AUDIO
    TITLE "0:"
    INDEX 01 02:08:48
  TRACK 87 AUDIO
    TITLE "2:cjc091_0727"
    INDEX 01 02:09:58
  TRACK 88 AUDIO
    TITLE "0:"
    INDEX 01 02:11:15
  TRACK 89 AUDIO
    TITLE "3:cjc091_0728"
    INDEX 01 02:11:25
  TRACK 90 AUDIO
    TITLE "0:"
    INDEX 01 02:13:07
  TRACK 91 AUDIO
    TITLE "4:cjc091_0729"
    INDEX 01 02:13:26
  TRACK 92 AUDIO
    TITLE "0:"
    INDEX 01 02:17:22
